<?xml version="1.0" standalone="no"?>
<!DOCTYPE svg PUBLIC "-//W3C//DTD SVG 20010904//EN"
 "http://www.w3.org/TR/2001/REC-SVG-20010904/DTD/svg10.dtd">
<svg version="1.0" xmlns="http://www.w3.org/2000/svg"
 width="500.000000pt" height="500.000000pt" viewBox="0 0 500.000000 500.000000"
 preserveAspectRatio="xMidYMid meet">
<metadata>
Created by potrace 1.14, written by Peter Selinger 2001-2017
</metadata>
<g transform="translate(0.000000,500.000000) scale(0.100000,-0.100000)"
fill="#000000" stroke="none">
<path d="M3384 3910 c-115 -23 -225 -113 -263 -215 -58 -153 -29 -311 78 -429
22 -25 23 -28 6 -22 -11 4 -59 18 -107 31 -138 37 -260 48 -446 42 -245 -8
-404 -47 -579 -142 l-84 -46 -29 21 c-95 67 -301 140 -457 161 -112 15 -373 6
-473 -16 -518 -114 -857 -480 -911 -986 -28 -258 38 -532 181 -745 285 -426
877 -594 1398 -398 37 14 90 38 118 53 l50 29 59 -39 c67 -44 192 -92 286
-110 35 -7 120 -12 189 -12 140 1 238 22 347 73 l63 29 65 -30 c211 -95 510
-98 718 -5 l56 24 75 -29 c41 -16 106 -36 143 -45 93 -23 302 -22 408 1 295
63 508 264 580 549 46 180 43 349 -9 461 -28 63 -91 134 -141 161 l-35 19 0
622 c0 419 -4 639 -11 675 -18 84 -55 151 -114 207 -65 61 -135 96 -225 110
-76 13 -874 13 -936 1z m1058 -53 c114 -56 184 -150 208 -276 6 -33 10 -298
10 -677 0 -343 4 -624 8 -624 22 0 102 -64 131 -105 56 -78 73 -143 73 -280
-1 -130 -17 -224 -56 -328 -78 -207 -261 -372 -486 -437 -56 -17 -113 -23
-221 -27 -169 -6 -267 9 -387 59 l-73 30 -57 -25 c-114 -51 -175 -61 -352 -62
-182 0 -240 11 -362 67 l-68 31 -78 -36 c-104 -47 -206 -67 -347 -67 -184 0
-327 38 -456 122 l-61 39 -77 -39 c-96 -50 -241 -97 -349 -112 -132 -20 -374
-8 -493 23 -472 123 -781 486 -817 959 -27 347 79 653 307 878 122 121 275
215 439 270 129 43 232 61 378 67 265 12 514 -47 694 -164 l45 -29 60 37 c250
157 688 205 1034 113 51 -13 113 -33 137 -43 24 -11 46 -16 49 -11 7 11 -20
31 -36 27 -8 -2 -11 -2 -6 1 4 2 -13 26 -37 53 -69 76 -89 141 -84 269 3 94 7
111 33 158 37 68 111 135 178 161 50 20 72 20 548 18 l495 -2 76 -38z"/>
<path d="M3426 3584 c-33 -32 -17 -73 48 -123 109 -85 101 -17 104 -857 1
-468 -1 -741 -8 -758 -7 -18 -17 -26 -34 -26 -34 0 -35 10 -39 345 -5 312 -11
354 -74 485 -49 103 -158 211 -264 263 -139 68 -206 81 -439 81 -181 1 -215
-2 -295 -22 -190 -48 -334 -149 -390 -274 -37 -83 -39 -196 -5 -276 30 -68
111 -143 188 -172 72 -28 217 -38 304 -20 117 23 223 95 271 185 31 57 31 193
0 250 -41 76 -123 131 -214 142 -42 5 -49 9 -49 28 0 39 58 46 148 20 68 -20
152 -97 189 -173 24 -49 28 -69 28 -142 0 -70 -5 -95 -26 -140 -66 -140 -206
-216 -494 -265 -134 -23 -261 -61 -292 -86 -10 -9 -11 6 -6 84 3 52 3 106 -1
121 -6 24 -11 26 -54 26 -42 0 -52 -5 -83 -36 -92 -96 -207 -151 -338 -161
-151 -11 -281 35 -382 136 -87 88 -122 168 -127 291 -3 79 0 105 18 152 25 68
95 146 160 178 58 30 160 39 179 16 20 -24 6 -46 -28 -46 -57 0 -137 -38 -184
-88 -55 -60 -72 -107 -71 -198 2 -135 90 -265 224 -328 61 -29 72 -31 180 -31
108 0 119 2 182 32 89 42 151 101 191 182 30 61 32 73 32 166 0 90 -3 106 -29
159 -35 71 -122 161 -194 199 -135 73 -285 102 -485 95 -268 -10 -472 -98
-634 -272 -257 -274 -268 -745 -26 -1039 69 -83 145 -142 248 -192 298 -146
679 -113 922 81 62 50 142 133 143 149 0 5 -21 -14 -46 -43 -89 -101 -221
-185 -369 -232 -95 -31 -314 -39 -431 -17 -315 60 -548 281 -610 581 -19 90
-19 275 1 368 30 146 130 311 247 407 74 60 206 131 298 159 159 48 404 54
563 13 165 -43 301 -141 359 -259 30 -60 33 -75 33 -157 0 -118 -31 -191 -116
-269 -83 -77 -146 -100 -279 -100 -97 -1 -110 1 -170 30 -147 70 -220 179
-221 330 -1 142 78 232 226 259 51 9 61 14 63 34 6 36 -15 51 -72 51 -79 0
-140 -25 -205 -86 -81 -75 -115 -151 -115 -259 0 -155 74 -295 202 -382 77
-52 143 -74 247 -80 154 -10 286 37 402 142 56 50 67 56 100 53 l38 -3 3 -54
c2 -29 -1 -83 -7 -119 -6 -36 -9 -68 -7 -70 2 -1 19 6 37 18 51 31 171 66 294
85 340 52 509 179 523 391 12 189 -120 349 -299 362 -60 4 -68 2 -81 -17 -24
-35 -12 -61 28 -61 85 0 187 -66 228 -148 40 -79 30 -189 -26 -269 -123 -180
-494 -207 -653 -48 -85 86 -111 225 -65 349 65 172 298 289 606 303 452 21
724 -138 816 -475 18 -67 22 -117 27 -379 5 -256 8 -305 22 -318 12 -12 22
-14 41 -6 47 18 49 48 46 807 l-3 700 -30 59 c-23 44 -43 67 -82 94 -48 32
-53 39 -53 73 0 29 4 38 18 38 128 3 846 -2 856 -6 35 -13 36 -43 36 -899 0
-754 2 -845 16 -859 20 -20 27 -20 53 2 14 11 25 37 32 77 16 96 16 95 59 95
21 0 42 -5 46 -12 12 -20 5 -181 -11 -243 -41 -155 -146 -259 -302 -300 -68
-18 -237 -21 -307 -5 -82 18 -154 60 -212 123 -30 32 -54 62 -54 68 0 20 -16
7 -40 -33 -31 -51 -123 -121 -193 -145 -74 -26 -300 -26 -374 0 -75 26 -163
94 -207 161 -20 31 -39 56 -40 56 -2 0 -18 -22 -36 -49 -35 -55 -103 -121
-146 -144 -89 -46 -252 -62 -374 -36 -158 33 -272 138 -301 278 -6 29 -15 49
-19 45 -9 -9 17 -100 43 -150 20 -39 105 -117 153 -142 137 -70 340 -77 471
-17 74 33 120 71 169 137 l42 58 21 -34 c12 -18 44 -54 71 -80 185 -173 535
-162 700 21 l54 60 31 -41 c129 -170 433 -215 658 -98 119 61 187 163 214 321
14 80 13 177 -2 201 -7 11 -105 14 -106 3 0 -5 -8 -44 -17 -88 -15 -71 -20
-80 -41 -83 -13 -2 -28 2 -32 10 -5 7 -9 394 -9 860 l0 847 -24 28 -24 28
-430 3 c-390 3 -431 1 -446 -14z"/>
<path d="M2670 2070 c-12 -7 -16 -36 -18 -125 -2 -64 -1 -128 2 -141 9 -33 43
-48 79 -35 l27 11 0 138 c0 94 -4 142 -12 150 -14 14 -57 16 -78 2z m64 -6
c14 -5 16 -27 16 -140 0 -123 -2 -134 -20 -144 -23 -12 -54 0 -64 26 -10 26
-7 224 4 245 11 19 35 24 64 13z"/>
</g>
</svg>
