<?xml version="1.0" standalone="no"?>
<!DOCTYPE svg PUBLIC "-//W3C//DTD SVG 20010904//EN"
 "http://www.w3.org/TR/2001/REC-SVG-20010904/DTD/svg10.dtd">
<svg version="1.0" xmlns="http://www.w3.org/2000/svg" width="500.000000pt" height="500.000000pt" viewBox="0 0 500.000000 500.000000" preserveAspectRatio="xMidYMid meet">
<metadata>
Created by potrace 1.14, written by Peter Selinger 2001-2017
</metadata>
<g transform="translate(0.000000,500.000000) scale(0.100000,-0.100000)" fill="#000000" stroke="none">
<path d="M3338 3896 c-125 -45 -220 -151 -234 -263 -4 -31 -2 -29 11 15 20 70
29 87 84 145 53 57 104 86 181 103 38 9 46 12 25 13 -16 0 -46 -6 -67 -13z"></path>
<path d="M4293 3903 c9 -2 25 -2 35 0 9 3 1 5 -18 5 -19 0 -27 -2 -17 -5z"></path>
<path d="M4397 3880 c126 -45 209 -136 248 -272 14 -47 15 -48 10 -13 -13 110
-122 244 -230 284 -31 12 -61 21 -68 20 -7 0 11 -9 40 -19z"></path>
<path d="M3420 3579 c0 -5 5 -7 10 -4 6 3 10 8 10 11 0 2 -4 4 -10 4 -5 0 -10
-5 -10 -11z"></path>
<path d="M4296 3576 c18 -8 34 -24 37 -37 4 -13 7 -402 7 -865 0 -851 1 -864
35 -864 5 0 3 5 -5 10 -13 8 -16 120 -20 871 l-5 861 -24 19 c-13 10 -31 19
-40 19 -9 -1 -2 -7 15 -14z"></path>
<path d="M4662 2919 l-2 -637 31 -12 c42 -18 113 -89 139 -140 12 -24 28 -70
36 -104 14 -59 14 -60 9 -12 -10 98 -83 211 -166 258 l-39 22 -3 630 -2 631
-3 -636z"></path>
<path d="M3420 3513 c0 -7 15 -22 33 -34 88 -61 114 -100 127 -192 l9 -62 -3
62 c-5 78 -34 131 -95 174 -25 18 -52 39 -58 47 -7 9 -13 11 -13 5z"></path>
<path d="M3102 3465 c0 -16 2 -22 5 -12 2 9 2 23 0 30 -3 6 -5 -1 -5 -18z"></path>
<path d="M3110 3421 c0 -27 65 -133 99 -162 40 -33 37 -35 -16 -14 -52 20
-191 55 -217 54 -12 0 15 -9 59 -19 44 -10 113 -30 153 -45 41 -15 76 -24 79
-21 3 3 -18 27 -47 53 -34 31 -63 69 -81 108 -16 33 -29 54 -29 46z"></path>
<path d="M1253 3313 c37 -2 97 -2 135 0 37 2 6 3 -68 3 -74 0 -105 -1 -67 -3z"></path>
<path d="M2643 3313 c43 -2 110 -2 150 0 40 1 5 3 -78 3 -82 0 -115 -2 -72 -3z"></path>
<path d="M1118 3303 c12 -2 30 -2 40 0 9 3 -1 5 -23 4 -22 0 -30 -2 -17 -4z"></path>
<path d="M1483 3303 c9 -2 25 -2 35 0 9 3 1 5 -18 5 -19 0 -27 -2 -17 -5z"></path>
<path d="M2498 3303 c12 -2 30 -2 40 0 9 3 -1 5 -23 4 -22 0 -30 -2 -17 -4z"></path>
<path d="M2898 3303 c12 -2 30 -2 40 0 9 3 -1 5 -23 4 -22 0 -30 -2 -17 -4z"></path>
<path d="M1005 3289 c-343 -79 -625 -293 -775 -589 -38 -76 -90 -227 -89 -258
0 -9 11 21 25 68 117 394 424 673 849 770 44 10 69 18 55 18 -14 0 -43 -4 -65
-9z"></path>
<path d="M1553 3293 c9 -2 23 -2 30 0 6 3 -1 5 -18 5 -16 0 -22 -2 -12 -5z"></path>
<path d="M2433 3293 c9 -2 23 -2 30 0 6 3 -1 5 -18 5 -16 0 -22 -2 -12 -5z"></path>
<path d="M1680 3264 c82 -24 209 -81 280 -125 l35 -21 60 35 c76 46 164 82
274 112 47 13 79 24 70 24 -56 3 -300 -90 -370 -140 l-31 -22 -37 22 c-115 68
-298 142 -349 140 -9 0 21 -11 68 -25z"></path>
<path d="M1258 2993 c34 -2 90 -2 125 0 34 2 6 3 -63 3 -69 0 -97 -1 -62 -3z"></path>
<path d="M2642 2993 c37 -2 100 -2 140 0 40 1 10 3 -67 3 -77 0 -110 -1 -73
-3z"></path>
<path d="M1053 2970 c-221 -58 -410 -192 -512 -363 -46 -77 -90 -211 -96 -288
l-4 -64 10 65 c52 333 292 574 649 650 47 10 72 19 55 19 -16 0 -62 -9 -102
-19z"></path>
<path d="M1463 2983 c9 -2 25 -2 35 0 9 3 1 5 -18 5 -19 0 -27 -2 -17 -5z"></path>
<path d="M2518 2983 c12 -2 30 -2 40 0 9 3 -1 5 -23 4 -22 0 -30 -2 -17 -4z"></path>
<path d="M2927 2975 c270 -49 440 -185 523 -418 10 -28 19 -46 19 -40 2 26
-50 146 -84 198 -56 83 -136 150 -239 200 -89 42 -207 76 -263 74 -15 0 4 -7
44 -14z"></path>
<path d="M1590 2956 c194 -58 321 -166 365 -309 8 -23 14 -33 14 -22 1 28 -43
120 -79 165 -45 56 -155 127 -251 160 -46 17 -93 30 -104 29 -11 0 14 -10 55
-23z"></path>
<path d="M2458 2973 c6 -2 18 -2 25 0 6 3 1 5 -13 5 -14 0 -19 -2 -12 -5z"></path>
<path d="M2355 2951 c-196 -70 -327 -196 -340 -327 l-5 -49 13 55 c33 144 153
252 352 316 38 13 61 23 50 23 -11 0 -42 -8 -70 -18z"></path>
<path d="M1387 2873 c53 -4 79 -22 69 -48 -3 -8 -16 -15 -29 -15 -115 0 -258
-123 -256 -220 0 -16 5 -8 13 22 25 93 100 160 202 179 85 16 84 16 84 43 0
33 -27 46 -87 44 l-48 -2 52 -3z"></path>
<path d="M2533 2869 c-7 -7 -13 -26 -13 -41 0 -26 3 -28 38 -26 l37 1 -33 4
c-29 4 -33 8 -30 31 3 25 7 27 51 30 74 5 139 -22 206 -84 80 -74 106 -132
106 -244 0 -71 -4 -94 -27 -142 -49 -106 -161 -184 -334 -233 -49 -14 -71 -22
-49 -19 136 20 292 102 357 188 156 208 21 526 -231 543 -46 4 -70 1 -78 -8z"></path>
<path d="M1263 2849 c-50 -24 -123 -100 -152 -158 -12 -22 -24 -62 -26 -88
l-5 -48 13 55 c24 107 91 190 191 236 28 13 44 24 36 24 -8 0 -34 -9 -57 -21z"></path>
<path d="M2620 2791 c77 -24 150 -91 175 -160 58 -166 -46 -329 -248 -386 -43
-13 -45 -15 -14 -11 93 12 217 98 259 180 25 49 34 146 19 202 -6 22 -24 59
-41 82 -31 44 -121 102 -155 101 -16 -1 -15 -2 5 -8z"></path>
<path d="M1973 2545 c0 -33 2 -45 4 -27 2 18 2 45 0 60 -2 15 -4 0 -4 -33z"></path>
<path d="M2011 2509 c-2 -45 29 -116 71 -164 45 -51 133 -100 194 -109 l39 -6
-45 14 c-139 41 -225 127 -249 249 -6 28 -9 33 -10 16z"></path>
<path d="M1081 2482 c-2 -47 35 -147 76 -210 61 -92 187 -175 284 -187 43 -5
43 -5 -10 10 -177 50 -311 195 -340 365 -6 41 -9 46 -10 22z"></path>
<path d="M1175 2462 c16 -126 156 -267 285 -287 23 -4 15 1 -23 14 -128 43
-215 133 -252 261 -15 52 -15 53 -10 12z"></path>
<path d="M3472 2480 c0 -14 2 -19 5 -12 2 6 2 18 0 25 -3 6 -5 1 -5 -13z"></path>
<path d="M1961 2463 c-2 -42 -41 -114 -87 -163 -56 -60 -97 -86 -172 -112 -49
-16 -51 -18 -17 -12 59 9 151 61 197 113 48 54 91 142 85 173 -4 23 -4 23 -6
1z"></path>
<path d="M3482 2420 c0 -19 2 -27 5 -17 2 9 2 25 0 35 -3 9 -5 1 -5 -18z"></path>
<path d="M132 2395 c0 -16 2 -22 5 -12 2 9 2 23 0 30 -3 6 -5 -1 -5 -18z"></path>
<path d="M3492 2112 c-2 -259 2 -302 31 -302 7 0 6 4 -3 10 -13 8 -16 54 -20
282 l-6 273 -2 -263z"></path>
<path d="M123 2315 c0 -27 2 -38 4 -22 2 15 2 37 0 50 -2 12 -4 0 -4 -28z"></path>
<path d="M1921 2226 c-74 -68 -139 -106 -221 -129 -55 -15 -58 -17 -20 -12 65
8 176 66 247 130 56 50 67 56 100 53 l38 -3 6 -75 5 -75 2 67 c3 91 -1 98 -54
98 -39 0 -50 -6 -103 -54z"></path>
<path d="M2363 2223 c26 -2 67 -2 90 0 23 2 2 3 -48 3 -49 0 -68 -1 -42 -3z"></path>
<path d="M112 2195 c0 -16 2 -22 5 -12 2 9 2 23 0 30 -3 6 -5 -1 -5 -18z"></path>
<path d="M1533 2163 c20 -2 54 -2 75 0 20 2 3 4 -38 4 -41 0 -58 -2 -37 -4z"></path>
<path d="M2403 2133 c9 -2 23 -2 30 0 6 3 -1 5 -18 5 -16 0 -22 -2 -12 -5z"></path>
<path d="M441 2099 c0 -20 8 -71 19 -115 57 -223 198 -395 404 -494 78 -37
184 -71 222 -69 11 0 -13 9 -53 19 -325 85 -537 316 -582 635 -6 44 -9 51 -10
24z"></path>
<path d="M2333 2123 c9 -2 25 -2 35 0 9 3 1 5 -18 5 -19 0 -27 -2 -17 -5z"></path>
<path d="M123 2075 c0 -27 2 -38 4 -22 2 15 2 37 0 50 -2 12 -4 0 -4 -28z"></path>
<path d="M2215 2101 c-33 -10 -79 -27 -102 -39 -23 -12 -44 -22 -46 -22 -1 0
-2 17 0 38 2 35 2 35 -7 -7 -5 -25 -8 -46 -6 -48 1 -2 25 9 52 24 27 15 85 37
129 50 44 12 71 22 60 22 -11 0 -47 -8 -80 -18z"></path>
<path d="M1523 2073 c20 -2 54 -2 75 0 20 2 3 4 -38 4 -41 0 -58 -2 -37 -4z"></path>
<path d="M2666 2058 c-13 -18 -16 -47 -14 -138 l2 -115 5 122 c4 70 11 127 17
133 6 7 24 10 40 8 l29 -3 3 -138 3 -137 -26 -12 c-21 -9 -28 -8 -45 7 -12 11
-20 13 -20 6 0 -20 43 -33 73 -22 l27 11 0 138 c0 94 -4 142 -12 150 -20 20
-65 14 -82 -10z"></path>
<path d="M132 1995 c0 -16 2 -22 5 -12 2 9 2 23 0 30 -3 6 -5 -1 -5 -18z"></path>
<path d="M4446 1985 c-3 -9 -5 -29 -5 -43 1 -23 3 -21 8 8 6 33 9 35 49 38 36
3 44 0 52 -20 l10 -23 -3 25 c-2 23 -7 25 -53 28 -40 2 -53 -1 -58 -13z"></path>
<path d="M141 1945 c-1 -41 78 -247 123 -323 114 -189 253 -315 451 -412 120
-59 261 -105 293 -97 12 3 11 5 -5 6 -40 2 -216 62 -288 98 -156 79 -319 220
-408 355 -54 82 -112 210 -141 308 -14 47 -25 76 -25 65z"></path>
<path d="M4882 1905 c0 -16 2 -22 5 -12 2 9 2 23 0 30 -3 6 -5 -1 -5 -18z"></path>
<path d="M4432 1890 c0 -14 2 -19 5 -12 2 6 2 18 0 25 -3 6 -5 1 -5 -13z"></path>
<path d="M3581 1878 c0 -16 -10 -37 -21 -48 -11 -11 -16 -20 -10 -20 17 0 42
48 37 72 -4 20 -4 20 -6 -4z"></path>
<path d="M4421 1848 c-1 -9 -9 -22 -18 -27 -10 -6 -13 -11 -7 -11 17 0 37 27
31 42 -4 8 -6 7 -6 -4z"></path>
<path d="M4551 1814 c0 -17 -8 -55 -17 -85 -44 -149 -134 -241 -282 -291 -37
-12 -45 -17 -22 -13 59 9 157 61 204 108 71 72 139 232 123 292 -3 14 -5 10
-6 -11z"></path>
<path d="M4873 1790 c0 -25 2 -35 4 -22 2 12 2 32 0 45 -2 12 -4 2 -4 -23z"></path>
<path d="M1892 1703 c-98 -122 -260 -224 -417 -262 -44 -11 -72 -20 -61 -20
64 -3 228 62 322 127 83 57 209 183 202 201 -2 4 -23 -16 -46 -46z"></path>
<path d="M4847 1663 c-29 -132 -87 -234 -192 -339 -101 -102 -160 -139 -290
-183 -50 -17 -82 -31 -73 -31 31 0 176 56 233 91 122 73 225 190 284 321 32
70 64 181 59 205 -2 8 -11 -21 -21 -64z"></path>
<path d="M1941 1699 c-3 -66 96 -191 187 -238 53 -27 146 -51 192 -50 24 1 16
4 -28 10 -178 26 -305 127 -342 274 -8 28 -8 29 -9 4z"></path>
<path d="M2784 1628 c-41 -79 -147 -165 -237 -193 -23 -8 -33 -14 -22 -14 28
-1 120 43 165 79 20 16 55 55 76 85 l38 56 21 -28 c40 -57 100 -115 142 -140
57 -33 155 -63 201 -62 30 1 27 3 -18 10 -131 19 -234 81 -304 182 -22 32 -41
57 -42 57 -2 0 -11 -14 -20 -32z"></path>
<path d="M3614 1579 c-48 -64 -116 -112 -198 -139 -37 -13 -47 -19 -26 -15 68
10 156 63 215 127 30 34 55 57 55 51 0 -6 21 -34 46 -62 48 -53 141 -107 204
-116 24 -4 17 0 -22 13 -31 11 -71 29 -90 40 -36 23 -120 106 -135 135 -8 16
-14 11 -49 -34z"></path>
<path d="M1133 1413 c15 -2 37 -2 50 0 12 2 0 4 -28 4 -27 0 -38 -2 -22 -4z"></path>
<path d="M1323 1413 c15 -2 37 -2 50 0 12 2 0 4 -28 4 -27 0 -38 -2 -22 -4z"></path>
<path d="M2448 1413 c12 -2 30 -2 40 0 9 3 -1 5 -23 4 -22 0 -30 -2 -17 -4z"></path>
<path d="M3298 1413 c12 -2 30 -2 40 0 9 3 -1 5 -23 4 -22 0 -30 -2 -17 -4z"></path>
<path d="M3968 1413 c12 -2 30 -2 40 0 9 3 -1 5 -23 4 -22 0 -30 -2 -17 -4z"></path>
<path d="M4128 1413 c12 -2 32 -2 45 0 12 2 2 4 -23 4 -25 0 -35 -2 -22 -4z"></path>
<path d="M1810 1230 c-90 -48 -201 -88 -301 -109 -52 -11 -83 -20 -69 -20 68
-2 240 52 361 114 l66 34 37 -25 c49 -34 173 -92 211 -99 17 -3 8 3 -20 13
-68 26 -153 69 -192 98 -17 13 -33 24 -35 24 -2 -1 -28 -14 -58 -30z"></path>
<path d="M2784 1190 c-6 -6 -44 -24 -85 -41 -41 -17 -60 -27 -44 -24 17 4 58
20 93 36 l62 30 53 -24 c63 -30 181 -67 211 -66 11 0 -13 9 -54 20 -41 10
-103 33 -138 49 -70 33 -83 35 -98 20z"></path>
<path d="M3605 1173 c-16 -9 -61 -27 -100 -39 -38 -13 -62 -23 -52 -24 10 0
60 16 112 35 92 35 96 35 126 19 43 -22 138 -54 158 -54 9 1 -15 11 -54 24
-38 12 -84 30 -102 39 -39 21 -50 21 -88 0z"></path>
<path d="M2170 1110 c14 -4 36 -8 50 -8 22 0 22 1 -5 8 -16 4 -39 8 -50 8 -16
0 -15 -2 5 -8z"></path>
<path d="M2598 1113 c7 -3 16 -2 19 1 4 3 -2 6 -13 5 -11 0 -14 -3 -6 -6z"></path>
<path d="M1043 1103 c9 -2 23 -2 30 0 6 3 -1 5 -18 5 -16 0 -22 -2 -12 -5z"></path>
<path d="M2485 1100 l-50 -7 45 0 c25 0 59 3 75 7 26 7 27 8 5 7 -14 0 -47 -3
-75 -7z"></path>
<path d="M3335 1100 l-50 -7 45 0 c25 0 59 3 75 7 26 7 27 8 5 7 -14 0 -47 -3
-75 -7z"></path>
<path d="M3883 1103 c9 -2 23 -2 30 0 6 3 -1 5 -18 5 -16 0 -22 -2 -12 -5z"></path>
<path d="M4233 1103 c9 -2 23 -2 30 0 6 3 -1 5 -18 5 -16 0 -22 -2 -12 -5z"></path>
<path d="M1113 1093 c15 -2 39 -2 55 0 15 2 2 4 -28 4 -30 0 -43 -2 -27 -4z"></path>
<path d="M1333 1093 c15 -2 39 -2 55 0 15 2 2 4 -28 4 -30 0 -43 -2 -27 -4z"></path>
<path d="M2273 1093 c15 -2 37 -2 50 0 12 2 0 4 -28 4 -27 0 -38 -2 -22 -4z"></path>
<path d="M3123 1093 c15 -2 37 -2 50 0 12 2 0 4 -28 4 -27 0 -38 -2 -22 -4z"></path>
<path d="M3948 1093 c12 -2 32 -2 45 0 12 2 2 4 -23 4 -25 0 -35 -2 -22 -4z"></path>
<path d="M4143 1093 c15 -2 37 -2 50 0 12 2 0 4 -28 4 -27 0 -38 -2 -22 -4z"></path>
</g>
</svg>
